<?xml version="1.0" encoding="utf-8"?>
<!-- Generator: Adobe Illustrator 25.0.0, SVG Export Plug-In . SVG Version: 6.00 Build 0)  -->
<svg version="1.1" id="Layer_1" xmlns="http://www.w3.org/2000/svg" xmlns:xlink="http://www.w3.org/1999/xlink" x="0px" y="0px"
	 viewBox="0 0 461.6 781.7" style="enable-background:new 0 0 461.6 781.7;" xml:space="preserve">
<style type="text/css">
	.st0{fill:#D7D30E;}
</style>
<path class="st0" d="M408.6,0.1c-5.5,1-8.5,6.8-11.6,11.5c-11.2,17.1-31.7,25.4-51.3,31.3c-29.5,8.8-56.6,17.2-74.9,43.7
	c-8.3,12-13,25.8-16.9,39.7c-1.8,6.4-2.9,13.6-2.2,20.2c0.2,1.7-0.2,3.7-1.7,4.3c-5.6,2.2-2.7-10.8-2.9-13.1
	c-0.5-6.7-1.5-13.3-3.2-19.7c-5-18.1-14.4-32.9-28-45.8c-5.6-5.3-12.1-10.3-19.7-10.8c-5.6-0.4-11.2,1.8-15.8,5
	c-5.2,3.6-21.1,16.2-17.1,24c1.4,2.7,4,4.4,6.5,6.1c29.4,19.1,61.6,35.9,56.4,77.2c-0.8,6.4-2.7,12.6-3.5,19
	c-6.1-2.8-12-6.1-18.2-8.5c-19.4-7.6-48-4.2-68.1-0.5c-32.3,5.9-62.2,21.3-85.7,44.4C15.7,262.5,0,310.8,0,359.2
	c0,248.3,313.2,162,313.2,250.8c0,24.5-13.7,42-84.5,42c-96.6,0-114.1-69.1-165.8-69.1c-29.2,0-55.5,31.3-55.5,57.1
	c0,44.2,66.6,112.5,204.9,112.5c150,0,220.8-60,220.8-138.3c0-100.8-106.6-93.3-106.6-108.3c0-20,99.1-20.8,99.1-145.8
	c0-28.5-8.5-61.4-22.6-86.5c-0.5-1-1.1-1.9-1.7-2.9c-14-23.6-33.6-44.1-58.1-56.9c-19.7-10.3-40-12.1-61.5-14.8
	c-11.1-1.4-21.8,0.2-32.6,0c2.7-15.9,6.8-30.8,23.1-39c18-8.9,40.5-3.6,59.7-3.6c28.7-0.1,53-7.4,75.1-26
	c14.9-12.5,24.1-36.3,27.2-55.1c3.6-22,0-45.4-11.2-64.9C419.9,4.9,414.8-0.9,408.6,0.1z M303.6,366.8c0,50.5-31.2,91.3-93.5,91.3
	c-60.8,0-90.5-40.8-90.5-91.3c0-49,28.9-89.8,90.5-89.8C275.4,277,303.6,314.8,303.6,366.8z"/>
</svg>
